HIERARCHY
ROOT Hips
{
 OFFSET 0.000000 0.000000 0.000000
 CHANNELS 6 Xposition Yposition Zposition Yrotation Xrotation Zrotation
 JOINT Chest
 {
  OFFSET 0.000000 9.585900 0.002600
  CHANNELS 3 Yrotation Xrotation Zrotation
  JOINT Chest2
  {
   OFFSET 0.000000 9.601200 -0.005300
   CHANNELS 3 Yrotation Xrotation Zrotation
   JOINT Chest3
   {
    OFFSET 0.000000 9.561800 0.000000
    CHANNELS 3 Yrotation Xrotation Zrotation
    JOINT Chest4
    {
     OFFSET 0.000000 9.552100 0.000000
     CHANNELS 3 Yrotation Xrotation Zrotation
     JOINT Neck
     {
      OFFSET 0.000000 14.453000 0.000000
      CHANNELS 3 Yrotation Xrotation Zrotation
      JOINT Head
      {
       OFFSET 0.000000 8.936500 -0.011300
       CHANNELS 3 Yrotation Xrotation Zrotation
       End Site
       {
        OFFSET 0.000000 17.073600 -0.006000
       }
      }
     }
     JOINT RightCollar
     {
      OFFSET -2.921100 9.558500 0.000000
      CHANNELS 3 Yrotation Xrotation Zrotation
      JOINT RightShoulder
      {
       OFFSET -13.519700 0.000000 0.000000
       CHANNELS 3 Yrotation Xrotation Zrotation
       JOINT RightElbow
       {
        OFFSET 0.000000 -29.696600 0.000000
        CHANNELS 3 Yrotation Xrotation Zrotation
        JOINT RightWrist
        {
         OFFSET 0.000000 -24.004700 0.000000
         CHANNELS 3 Yrotation Xrotation Zrotation
         End Site
         {
          OFFSET 0.000000 -17.728500 0.000000
         }
        }
       }
      }
     }
     JOINT LeftCollar
     {
      OFFSET 2.921100 9.558500 0.000000
      CHANNELS 3 Yrotation Xrotation Zrotation
      JOINT LeftShoulder
      {
       OFFSET 13.519700 0.000000 0.000000
       CHANNELS 3 Yrotation Xrotation Zrotation
       JOINT LeftElbow
       {
        OFFSET 0.000000 -29.696600 0.000000
        CHANNELS 3 Yrotation Xrotation Zrotation
        JOINT LeftWrist
        {
         OFFSET 0.000000 -24.004700 0.000000
         CHANNELS 3 Yrotation Xrotation Zrotation
         End Site
         {
          OFFSET 0.000000 -17.728500 0.000000
         }
        }
       }
      }
     }
    }
   }
  }
 }
 JOINT RightHip
 {
  OFFSET -7.771700 -0.012900 -0.001300
  CHANNELS 3 Yrotation Xrotation Zrotation
  JOINT RightKnee
  {
   OFFSET 0.000000 -40.869800 0.001200
   CHANNELS 3 Yrotation Xrotation Zrotation
   JOINT RightAnkle
   {
    OFFSET 0.000000 -39.717900 0.002100
    CHANNELS 3 Yrotation Xrotation Zrotation
    JOINT RightToe
    {
     OFFSET 0.000000 -4.965400 11.033500
     CHANNELS 3 Yrotation Xrotation Zrotation
     End Site
     {
      OFFSET 0.000000 -1.423100 5.872300
     }
    }
   }
  }
 }
 JOINT LeftHip
 {
  OFFSET 7.771700 -0.012900 -0.001300
  CHANNELS 3 Yrotation Xrotation Zrotation
  JOINT LeftKnee
  {
   OFFSET 0.000000 -40.869800 0.001200
   CHANNELS 3 Yrotation Xrotation Zrotation
   JOINT LeftAnkle
   {
    OFFSET 0.000000 -39.717900 0.002100
    CHANNELS 3 Yrotation Xrotation Zrotation
    JOINT LeftToe
    {
     OFFSET 0.000000 -4.965400 11.033500
     CHANNELS 3 Yrotation Xrotation Zrotation
     End Site
     {
      OFFSET 0.000000 -1.423100 5.872300
     }
    }
   }
  }
 }
}
MOTION
Frames: 13
Frame Time: 0.008333
0.000000 85.388000 0.000000 0.000000 -5.767877 0.000000 0.000000 11.653817 0.000000 0.000000 -5.885947 0.000000 0.000000 -0.000000 0.000000 0.000000 -0.000000 0.000000 0.000000 12.528835 0.000000 0.000000 0.711642 0.000000 0.000000 -0.000000 0.000000 0.000000 0.000000 -90.000000 0.000000 -2.309062 0.000000 0.000000 2.309062 0.000000 0.000000 -0.000000 0.000000 0.000000 -0.000000 90.000000 0.000000 -2.309062 0.000000 0.000000 2.309062 0.000000 0.000000 8.520406 0.000000 0.000000 1.905762 0.000000 -0.000000 -4.658285 0.000000 0.000000 -0.000000 0.000000 0.000000 8.520406 0.000000 0.000000 1.905762 0.000000 -0.000000 -4.658285 0.000000 0.000000 -0.000000 0.000000
-53.224507 62.098033 13.556115 178.834436 -48.881593 -0.815387 7.375331 26.004148 0.095745 1.156579 4.312613 -0.104793 1.853035 6.860079 -0.138863 5.811688 20.992875 0.304270 3.164776 13.446213 4.206996 4.309872 -10.860238 6.693568 6.796856 8.396252 7.551249 -39.895250 -25.393434 -4.721850 -168.254551 -46.664714 171.756300 14.966566 -5.135179 -19.825715 -7.744029 6.596850 2.163839 29.559751 -29.236899 6.778237 171.162342 -69.264807 -161.898971 13.535581 -15.095234 17.288522 2.004509 -17.846608 -8.585009 2.120909 62.422227 -2.295108 1.725412 -10.567176 10.451445 0.043419 -0.156821 0.017503 -0.586526 -7.361787 5.789058 124.347599 83.654844 133.056470 -5.020666 -16.611708 -10.358732 0.361414 -21.599008 -0.481216
-53.226636 62.097645 13.559443 178.830719 -48.890177 -0.815202 7.369927 26.006463 0.104620 1.117264 4.291631 -0.073088 1.840995 6.854014 -0.130414 5.781563 20.989971 0.326775 3.168839 13.503854 4.185547 4.327661 -10.753430 6.651250 6.690404 8.612575 7.545796 -39.639880 -25.182155 -4.780448 -167.383335 -46.853028 171.392478 14.898409 -4.904296 -19.053760 -7.737537 6.748830 2.163728 29.194699 -28.993921 6.821680 169.664702 -69.911072 -160.703033 13.507877 -14.562424 16.992181 2.009236 -17.836382 -8.579081 2.109422 62.415108 -2.308895 1.726074 -10.569818 10.452474 0.043394 -0.154268 0.020546 -0.584906 -7.354776 5.787241 124.265071 83.647220 132.977587 -5.032997 -16.608868 -10.363029 0.368329 -21.598995 -0.479868
-53.227363 62.097954 13.562474 178.821998 -48.906020 -0.822169 7.334863 25.997288 0.134779 1.104965 4.291762 -0.066293 1.827943 6.848713 -0.122486 5.747720 20.988554 0.347287 3.188484 13.564891 4.161656 4.375822 -10.640712 6.598192 6.592391 8.841473 7.540049 -39.345420 -24.968149 -4.838731 -166.462364 -47.062464 170.994011 14.814340 -4.666051 -18.213790 -7.716122 6.902351 2.172506 28.828306 -28.720270 6.850753 168.026840 -70.488465 -159.432148 13.472025 -14.019241 16.651100 2.013449 -17.819435 -8.561050 2.106822 62.406474 -2.313959 1.726178 -10.565676 10.453602 0.039092 -0.156743 0.021126 -0.580368 -7.340385 5.797069 124.257954 83.644886 132.972725 -5.030855 -16.606225 -10.357609 0.368674 -21.601366 -0.487565
-53.229195 62.097964 13.565795 178.813448 -48.920629 -0.824811 7.248490 25.980366 0.167754 1.129053 4.303659 -0.088850 1.813967 6.844609 -0.114701 5.710264 20.989119 0.366744 3.228777 13.613053 4.091807 4.433996 -10.512644 6.582039 6.502294 9.077486 7.532263 -39.025083 -24.744963 -4.897811 -165.502716 -47.281446 170.571435 14.714630 -4.406851 -17.304485 -7.682591 7.058346 2.189438 28.470437 -28.420302 6.861348 166.194934 -70.987218 -158.059348 13.423535 -13.474152 16.262648 2.024780 -17.803439 -8.545737 2.104390 62.399423 -2.319516 1.713533 -10.560959 10.459763 0.039524 -0.158951 0.020858 -0.574210 -7.326716 5.798471 124.231911 83.643861 132.953306 -5.024387 -16.601791 -10.360140 0.379096 -21.602775 -0.494687
-53.230245 62.099098 13.568048 178.796869 -48.945034 -0.827603 7.191272 25.984893 0.198740 1.132092 4.305393 -0.092280 1.799091 6.841092 -0.106802 5.669791 20.990858 0.386089 3.275486 13.660034 4.016831 4.519568 -10.374424 6.558528 6.421233 9.321382 7.522766 -38.691219 -24.506910 -4.960183 -164.497203 -47.501302 170.124777 14.603129 -4.119148 -16.328497 -7.637516 7.222112 2.210412 28.113822 -28.095036 6.860010 164.154860 -71.402518 -156.569998 13.364378 -12.946116 15.817781 2.039445 -17.775766 -8.526562 2.098068 62.389537 -2.321615 1.706040 -10.558880 10.454130 0.040258 -0.157760 0.026650 -0.564517 -7.301475 5.807826 124.230620 83.645091 132.956738 -5.016448 -16.594670 -10.361695 0.381373 -21.608770 -0.498973
-53.232624 62.099226 13.570887 178.783584 -48.962394 -0.826299 7.139412 25.988059 0.217861 1.122244 4.303383 -0.087140 1.783724 6.838279 -0.098959 5.627407 20.993790 0.405227 3.321894 13.755042 4.053717 4.657063 -10.264569 6.407322 6.344900 9.570549 7.513106 -38.343263 -24.250744 -5.026144 -163.426347 -47.726239 169.640705 14.481972 -3.817302 -15.275557 -7.583313 7.392202 2.234270 27.743054 -27.741170 6.863773 161.940301 -71.730614 -154.983126 13.301008 -12.443426 15.304342 2.052276 -17.756540 -8.514788 2.081075 62.381328 -2.336875 1.707890 -10.558844 10.453315 0.038438 -0.155901 0.029073 -0.560891 -7.282545 5.810179 124.210471 83.644308 132.935262 -5.009233 -16.596728 -10.361378 0.381883 -21.605661 -0.503845
-53.235093 62.099300 13.573508 178.767541 -48.980219 -0.823372 7.084507 25.991493 0.235328 1.112455 4.302295 -0.081968 1.768380 6.836817 -0.091135 5.584522 20.998481 0.424495 3.381089 13.838439 4.043147 4.792311 -10.137837 6.299033 6.267858 9.818401 7.499240 -37.983201 -23.972423 -5.091658 -162.279188 -47.965794 169.110012 14.335340 -3.529835 -14.114693 -7.524879 7.559277 2.257387 27.336902 -27.352850 6.891428 159.662217 -71.969182 -153.384299 13.245852 -11.953745 14.712509 2.081401 -17.736110 -8.509464 2.056708 62.374604 -2.342800 1.709675 -10.556301 10.451214 0.036295 -0.155658 0.030644 -0.557795 -7.263428 5.812814 124.195991 83.642038 132.917240 -5.002094 -16.596213 -10.359542 0.379782 -21.605458 -0.509395
-53.233990 62.099223 13.576174 178.746316 -48.997626 -0.838722 7.038519 25.993797 0.275389 1.102751 4.302029 -0.076728 1.796507 6.842128 -0.111080 5.510808 20.996129 0.478812 3.446152 13.885322 3.961633 4.923030 -9.969102 6.259273 6.187453 10.060906 7.477235 -37.614932 -23.671849 -5.154245 -161.062054 -48.219325 168.540474 14.139021 -3.262482 -12.822141 -7.467401 7.711521 2.272758 26.883110 -26.923864 6.954771 157.420047 -72.114033 -151.842378 13.194699 -11.457197 14.024288 2.093427 -17.716971 -8.471852 2.032756 62.362562 -2.363108 1.717785 -10.549868 10.453628 0.028825 -0.154150 0.029647 -0.551940 -7.243192 5.837811 124.241837 83.641305 132.968335 -4.992757 -16.604879 -10.365176 0.384796 -21.603371 -0.513601
-53.235549 62.099074 13.578625 178.720857 -49.015797 -0.835581 7.025129 26.005174 0.296782 1.058709 4.298748 -0.053299 1.759718 6.839514 -0.089491 5.482002 21.008898 0.481361 3.517986 13.982073 3.950258 5.078361 -9.828034 6.142452 6.102592 10.298085 7.447202 -37.241719 -23.351247 -5.209582 -159.783223 -48.474968 167.949583 13.887637 -2.989077 -11.407946 -7.414366 7.842777 2.280071 26.390492 -26.451385 7.050962 155.217380 -72.156367 -150.348036 13.110248 -10.941990 13.222071 2.107743 -17.699664 -8.451582 2.037285 62.355325 -2.363003 1.717467 -10.545046 10.459643 0.031412 -0.156920 0.025840 -0.541641 -7.222539 5.848105 124.230909 83.639055 132.956643 -4.986153 -16.608095 -10.367147 0.375740 -21.601740 -0.513627
-53.237611 62.098357 13.581444 178.701643 -49.030538 -0.834591 7.005682 26.015121 0.314910 1.014204 4.297043 -0.030994 1.722114 6.840099 -0.067716 5.451662 21.022562 0.482038 3.595785 14.087767 3.940832 5.241475 -9.678831 6.024436 6.012496 10.529847 7.410095 -36.868668 -23.012193 -5.251765 -158.452250 -48.728860 167.355285 13.596764 -2.690984 -9.904105 -7.361038 7.957086 2.286227 25.872322 -25.939119 7.163415 153.122192 -72.102700 -148.969297 12.974883 -10.403387 12.312768 2.128000 -17.684778 -8.433800 2.044188 62.349548 -2.357758 1.706545 -10.540032 10.468812 0.036227 -0.162047 0.022182 -0.536498 -7.206749 5.856580 124.237561 83.638060 132.961484 -4.984519 -16.612242 -10.365080 0.375357 -21.599497 -0.516749
-53.241194 62.096658 13.584990 178.694552 -49.038436 -0.833831 6.933841 26.015469 0.321942 1.043200 4.303119 -0.046515 1.669288 6.843772 -0.036651 5.403894 21.035210 0.499190 3.676232 14.182134 3.907900 5.407239 -9.504771 5.932280 5.915745 10.754160 7.365840 -36.500466 -22.659356 -5.281574 -157.040326 -48.983097 166.737403 13.316297 -2.368330 -8.332180 -7.303220 8.061746 2.294587 25.343486 -25.395885 7.275890 151.261681 -71.978288 -147.836637 12.808800 -9.845983 11.311957 2.142254 -17.677836 -8.427184 2.033866 62.346496 -2.367365 1.703867 -10.536664 10.474689 0.036533 -0.162648 0.022445 -0.548694 -7.198484 5.841933 124.179931 83.626802 132.905270 -4.977237 -16.610968 -10.378019 0.380193 -21.599934 -0.521129
-53.244450 62.096402 13.587195 178.675503 -49.058923 -0.825474 6.810929 26.031446 0.332938 1.124105 4.307844 -0.089616 1.617065 6.850640 -0.004657 5.354798 21.049576 0.516451 3.758648 14.282303 3.874935 5.576497 -9.319857 5.839614 5.812833 10.971410 7.313067 -36.146034 -22.295911 -5.299855 -155.494431 -49.226763 166.053829 13.093350 -2.007592 -6.691547 -7.246378 8.162971 2.303334 24.822584 -24.830966 7.383341 149.663069 -71.804304 -146.989895 12.624038 -9.291930 10.228657 2.167006 -17.656621 -8.415330 2.028182 62.342468 -2.375634 1.692851 -10.534589 10.484850 0.035806 -0.162425 0.021673 -0.546286 -7.177571 5.837567 124.140494 83.620154 132.861905 -4.970247 -16.604324 -10.378987 0.379707 -21.605005 -0.527941
